<?xml version="1.0" encoding="utf-8"?>
<!-- Generator: Adobe Illustrator 22.0.0, SVG Export Plug-In . SVG Version: 6.00 Build 0)  -->
<svg version="1.1" id="Layer_1" xmlns="http://www.w3.org/2000/svg" xmlns:xlink="http://www.w3.org/1999/xlink" x="0px" y="0px"
	 viewBox="0 0 200 78" style="enable-background:new 0 0 200 78;" xml:space="preserve">
<style type="text/css">
	.st0{fill:url(#SVGID_1_);}
	.st1{fill:url(#SVGID_2_);}
	.st2{fill:url(#SVGID_3_);}
	.st3{fill:url(#SVGID_4_);}
	.st4{fill:url(#SVGID_5_);}
	.st5{fill:url(#SVGID_6_);}
	.st6{fill:url(#SVGID_7_);}
	.st7{fill:url(#SVGID_8_);}
	.st8{fill:url(#SVGID_9_);}
	.st9{fill:url(#SVGID_10_);}
	.st10{fill:url(#SVGID_11_);}
	.st11{fill:url(#SVGID_12_);}
	.st12{fill:url(#SVGID_13_);}
	.st13{fill:url(#SVGID_14_);}
	.st14{fill:url(#SVGID_15_);}
	.st15{fill:url(#SVGID_16_);}
	.st16{fill:url(#SVGID_17_);}
	.st17{fill:url(#SVGID_18_);}
</style>
<g>
	<g>
		<linearGradient id="SVGID_1_" gradientUnits="userSpaceOnUse" x1="5.7758" y1="39.1764" x2="193.5582" y2="39.1764">
			<stop  offset="0.1011" style="stop-color:#07607F"/>
			<stop  offset="0.235" style="stop-color:#0B6D94"/>
			<stop  offset="0.3991" style="stop-color:#0B7BAB"/>
			<stop  offset="0.5" style="stop-color:#0982B6"/>
			<stop  offset="0.6012" style="stop-color:#0B7BAB"/>
			<stop  offset="0.7657" style="stop-color:#0B6D94"/>
			<stop  offset="0.9" style="stop-color:#07607F"/>
		</linearGradient>
		<path class="st0" d="M193.6,71.1H10c-1.2,0-2.4-0.5-3.2-1.4c-0.8-0.9-1.2-2.1-1-3.3l2.5-19.1c0.2-1.8,1.6-3.3,3.5-3.6l15.8-2.8
			c1-0.2,1.9-0.9,2.3-1.8l12.2-30L46,7.3l-15.2,33c-0.6,1.2-1.7,2.1-3.1,2.4L13,44.3c-1.5,0.3-2.7,1.5-2.9,3.1L7.6,67.1
			C7.4,68.6,8.5,70,10,70.1c0,0,0,0,0,0l178.5-2L193.6,71.1z"/>
	</g>
	<g>
		<linearGradient id="SVGID_2_" gradientUnits="userSpaceOnUse" x1="100.1125" y1="46.6666" x2="107.2514" y2="46.6666">
			<stop  offset="0.1011" style="stop-color:#07607F"/>
			<stop  offset="0.235" style="stop-color:#0B6D94"/>
			<stop  offset="0.3991" style="stop-color:#0B7BAB"/>
			<stop  offset="0.5" style="stop-color:#0982B6"/>
			<stop  offset="0.6012" style="stop-color:#0B7BAB"/>
			<stop  offset="0.7657" style="stop-color:#0B6D94"/>
			<stop  offset="0.9" style="stop-color:#07607F"/>
		</linearGradient>
		<path class="st1" d="M103.5,42.8C103.5,42.7,103.6,42.7,103.5,42.8c0.1-0.1,0.1-0.1,0.2-0.1h3.1c0.1,0,0.2,0,0.3,0.1
			c0.1,0,0.2,0,0.2,0.1c0,0.1,0,0.2,0,0.2c0,0.1,0,0.3-0.1,0.6c-0.1,0.3-0.2,0.5-0.3,0.8c-0.1,0.3-0.2,0.5-0.4,0.8
			c-0.1,0.2-0.3,0.4-0.4,0.5c-0.1,0.1-0.4,0.2-1,0.5c-0.6,0.3-0.9,0.4-0.9,0.5c0,0,0,0,0,0c0,0,0,0,0,0c0.1,0,0.2,0.1,0.3,0.1
			c0.1,0,0.3,0.1,0.4,0.1c0.1,0,0.2,0.1,0.3,0.2c0.1,0.1,0.1,0.2,0.1,0.3c0,0.1,0,0.2-0.1,0.4c-0.1,0.2-0.4,1.1-1.1,2.7
			c-0.1,0.2-0.3,0.3-0.5,0.3h-2.3h-1.2c0,0,0,0-0.1,0s0,0,0-0.1L103.5,42.8z M102.8,50.2c0.1,0,0.3-0.1,0.4-0.2l0.3-0.7l0.6-1.5
			c0,0,0-0.1,0.1-0.2c0-0.1,0-0.1,0-0.1c0-0.1-0.1-0.1-0.1-0.2c-0.1-0.1-0.1-0.1-0.2-0.1c-0.1,0-0.2-0.1-0.3-0.1c-0.1,0-0.2,0-0.2,0
			c-0.1,0-0.1,0-0.1,0c0,0-0.1,0-0.1,0c0,0,0,0.1-0.1,0.1c0,0,0,0.1-0.1,0.2l-0.8,1.7l-0.4,0.8c0,0.1,0.1,0.2,0.1,0.3
			c0.1,0.1,0.2,0.1,0.3,0.1C102.5,50.2,102.7,50.2,102.8,50.2z M104.9,43.1c-0.1,0-0.1,0-0.2,0.1c0,0-0.1,0.1-0.1,0.2
			c0,0.1-0.1,0.2-0.1,0.3c-0.1,0.2-0.2,0.4-0.3,0.7c-0.1,0.3-0.2,0.6-0.3,0.8c-0.1,0.3-0.2,0.5-0.3,0.7c-0.1,0.2-0.1,0.3-0.1,0.3
			v0.1c0,0,0,0,0.1,0c0.1,0,0.1,0,0.1,0c0,0,0.4-0.1,1.1-0.4c0.1-0.1,0.2-0.2,0.3-0.4c0.1-0.2,0.2-0.4,0.3-0.6
			c0.1-0.2,0.2-0.5,0.3-0.7c0.1-0.2,0.1-0.4,0.1-0.5c0-0.1,0-0.2-0.1-0.2c0-0.1-0.1-0.1-0.2-0.2c-0.1,0-0.1-0.1-0.2-0.1
			c-0.1,0-0.1,0-0.2,0C105,43.1,105,43.1,104.9,43.1z"/>
		<linearGradient id="SVGID_3_" gradientUnits="userSpaceOnUse" x1="105.8055" y1="46.6568" x2="110.3938" y2="46.6568">
			<stop  offset="0.1011" style="stop-color:#07607F"/>
			<stop  offset="0.235" style="stop-color:#0B6D94"/>
			<stop  offset="0.3991" style="stop-color:#0B7BAB"/>
			<stop  offset="0.5" style="stop-color:#0982B6"/>
			<stop  offset="0.6012" style="stop-color:#0B7BAB"/>
			<stop  offset="0.7657" style="stop-color:#0B6D94"/>
			<stop  offset="0.9" style="stop-color:#07607F"/>
		</linearGradient>
		<path class="st2" d="M110.4,42.6l-3.4,8.1h-0.2h-1c0-0.1,1.1-2.8,3.4-8.1H110.4z"/>
		<linearGradient id="SVGID_4_" gradientUnits="userSpaceOnUse" x1="109.0086" y1="46.6617" x2="115.8507" y2="46.6617">
			<stop  offset="0.1011" style="stop-color:#07607F"/>
			<stop  offset="0.235" style="stop-color:#0B6D94"/>
			<stop  offset="0.3991" style="stop-color:#0B7BAB"/>
			<stop  offset="0.5" style="stop-color:#0982B6"/>
			<stop  offset="0.6012" style="stop-color:#0B7BAB"/>
			<stop  offset="0.7657" style="stop-color:#0B6D94"/>
			<stop  offset="0.9" style="stop-color:#07607F"/>
		</linearGradient>
		<path class="st3" d="M109.1,49.8c0.1-0.2,0.3-0.6,0.5-1.1l1,0h0.1c0,0,0,0,0.1,0c0,0,0,0,0,0.1v0.1v0c0,0,0,0.1,0,0.1
			c0,0.1,0,0.1-0.1,0.2c0,0.1,0,0.2-0.1,0.2c0,0.1,0,0.1,0,0.1c0,0.1,0,0.2,0.1,0.3s0.2,0.2,0.3,0.3c0.1,0.1,0.2,0.1,0.2,0.1
			c0.1,0,0.1,0,0.3,0c0.2,0,0.3-0.1,0.4-0.2c0.1-0.1,0.2-0.2,0.3-0.4c0.1-0.2,0.2-0.4,0.3-0.7s0.2-0.5,0.3-0.7
			c0.1-0.2,0.2-0.4,0.2-0.6c0.1-0.2,0.1-0.3,0.1-0.4c0,0,0-0.1,0-0.1c0-0.1,0-0.1,0-0.1l-0.2-0.2h-2.1v-0.3c0.1-0.2,0.2-0.4,0.2-0.6
			c0-0.1,0.4-1,1.1-2.7c0.1-0.2,0.2-0.4,0.3-0.5c0.1-0.1,0.1-0.1,0.2-0.2c0.1-0.1,0.1-0.1,0.2-0.1h3.1c0.1,0.3,0.1,0.5,0,0.8
			c-0.1,0.3-0.2,0.5-0.3,0.7c-0.1,0.2-0.3,0.4-0.6,0.5c-0.2,0.1-0.5,0.2-0.8,0.2c0-0.1,0-0.2,0-0.3c0-0.1,0.1-0.2,0.1-0.3
			c0-0.1,0.1-0.2,0.1-0.3c0-0.1,0-0.2,0-0.3c0-0.1,0-0.2-0.1-0.3c-0.1-0.1-0.1-0.2-0.2-0.2c-0.1-0.1-0.2-0.1-0.3-0.2
			c-0.1,0-0.2-0.1-0.3-0.1c0,0-0.1,0-0.1,0c-0.1,0-0.1,0-0.1,0c0,0.1-0.2,0.5-0.6,1.3c-0.4,0.8-0.5,1.2-0.6,1.4
			c0,0.1-0.1,0.3-0.1,0.5c0,0.1,0,0.1,0,0.2c0,0.1,0.1,0.1,0.2,0.1h1.8l0.2,0.2c0,0,0,0,0,0.1c0,0.1,0,0.1,0,0.1c0,0.1,0,0.2,0,0.3
			c0,0.1-0.4,1-1.2,2.7c-0.1,0.3-0.3,0.5-0.5,0.7c-0.2,0.1-0.4,0.2-0.6,0.2c-0.2,0-0.5,0-0.9,0c-0.4,0-0.8,0-1.1,0
			c-0.3,0-0.5,0-0.6,0c-0.1,0-0.1,0-0.1,0l-0.3-0.1c0,0,0,0,0-0.1c0,0,0-0.1,0-0.1C109,50.2,109.1,50,109.1,49.8z"/>
		<linearGradient id="SVGID_5_" gradientUnits="userSpaceOnUse" x1="114.7218" y1="46.6671" x2="124.4515" y2="46.6671">
			<stop  offset="0.1011" style="stop-color:#07607F"/>
			<stop  offset="0.235" style="stop-color:#0B6D94"/>
			<stop  offset="0.3991" style="stop-color:#0B7BAB"/>
			<stop  offset="0.5" style="stop-color:#0982B6"/>
			<stop  offset="0.6012" style="stop-color:#0B7BAB"/>
			<stop  offset="0.7657" style="stop-color:#0B6D94"/>
			<stop  offset="0.9" style="stop-color:#07607F"/>
		</linearGradient>
		<path class="st4" d="M119,49.9c0,0.1,0.1,0.2,0.1,0.2c0.1,0.1,0.1,0.1,0.2,0.2c0.1,0,0.1,0.1,0.2,0.1c0.1,0,0.1,0,0.3,0l3.4-7.8
			h0.2h1c0,0.1-1.1,2.8-3.4,8.1h-1.2c-0.7,0-1.3,0-1.7,0c-0.2,0-0.5,0-1,0c-0.7,0-1.3,0-1.7,0c-0.2,0-0.3,0-0.4,0
			c-0.1,0-0.1,0-0.2-0.1c0,0-0.1-0.1-0.1-0.2c0.1-0.2,1.1-2.8,3.2-7.8l1.2,0l-2.8,6.9c0,0.2,0,0.3,0.1,0.4c0,0.1,0.1,0.2,0.1,0.2
			c0.1,0.1,0.1,0.1,0.2,0.2c0.1,0,0.1,0.1,0.2,0.1c0,0,0.2,0,0.3,0h0.2c0.1-0.2,1.1-2.8,3.2-7.8l1.2,0l-2.8,6.9
			C119,49.7,119,49.9,119,49.9z"/>
		<linearGradient id="SVGID_6_" gradientUnits="userSpaceOnUse" x1="123.0751" y1="46.6671" x2="129.8981" y2="46.6671">
			<stop  offset="0.1011" style="stop-color:#07607F"/>
			<stop  offset="0.235" style="stop-color:#0B6D94"/>
			<stop  offset="0.3991" style="stop-color:#0B7BAB"/>
			<stop  offset="0.5" style="stop-color:#0982B6"/>
			<stop  offset="0.6012" style="stop-color:#0B7BAB"/>
			<stop  offset="0.7657" style="stop-color:#0B6D94"/>
			<stop  offset="0.9" style="stop-color:#07607F"/>
		</linearGradient>
		<path class="st5" d="M129.4,42.6c0.2,0,0.3,0.1,0.5,0.3c0.1,0.2,0,0.8-0.4,1.7l-0.8,2l-1.7,4l-1.2,0l1.5-3.7h-0.7l-0.6,0l-1.6,3.6
			h-0.2h-1c0-0.1,1.1-2.8,3.4-8.1h1.2C128.4,42.6,128.9,42.6,129.4,42.6z M128.5,43.4c0-0.1-0.1-0.2-0.1-0.2
			c-0.1-0.1-0.1-0.1-0.2-0.2c-0.1,0-0.1-0.1-0.2-0.1s-0.2,0-0.3,0l-1.5,3.5l1.4,0l0.8-1.9l0.2-0.7C128.5,43.6,128.5,43.5,128.5,43.4
			z"/>
		<linearGradient id="SVGID_7_" gradientUnits="userSpaceOnUse" x1="128.8489" y1="46.6617" x2="135.691" y2="46.6617">
			<stop  offset="0.1011" style="stop-color:#07607F"/>
			<stop  offset="0.235" style="stop-color:#0B6D94"/>
			<stop  offset="0.3991" style="stop-color:#0B7BAB"/>
			<stop  offset="0.5" style="stop-color:#0982B6"/>
			<stop  offset="0.6012" style="stop-color:#0B7BAB"/>
			<stop  offset="0.7657" style="stop-color:#0B6D94"/>
			<stop  offset="0.9" style="stop-color:#07607F"/>
		</linearGradient>
		<path class="st6" d="M129,49.8c0.1-0.2,0.3-0.6,0.5-1.1l1,0h0.1c0,0,0,0,0.1,0c0,0,0,0,0,0.1v0.1v0c0,0,0,0.1,0,0.1
			c0,0.1,0,0.1-0.1,0.2c0,0.1,0,0.2-0.1,0.2c0,0.1,0,0.1,0,0.1c0,0.1,0,0.2,0.1,0.3s0.2,0.2,0.3,0.3c0.1,0.1,0.2,0.1,0.2,0.1
			c0.1,0,0.1,0,0.3,0c0.2,0,0.3-0.1,0.4-0.2c0.1-0.1,0.2-0.2,0.3-0.4c0.1-0.2,0.2-0.4,0.3-0.7c0.1-0.2,0.2-0.5,0.3-0.7
			c0.1-0.2,0.2-0.4,0.2-0.6c0.1-0.2,0.1-0.3,0.1-0.4c0,0,0-0.1,0-0.1c0-0.1,0-0.1,0-0.1l-0.2-0.2h-2.1v-0.3c0.1-0.2,0.2-0.4,0.2-0.6
			c0-0.1,0.4-1,1.1-2.7c0.1-0.2,0.2-0.4,0.3-0.5c0.1-0.1,0.1-0.1,0.2-0.2c0.1-0.1,0.1-0.1,0.2-0.1h3.1c0.1,0.3,0.1,0.5,0,0.8
			s-0.2,0.5-0.3,0.7c-0.1,0.2-0.3,0.4-0.6,0.5c-0.2,0.1-0.5,0.2-0.8,0.2c0-0.1,0-0.2,0-0.3c0-0.1,0.1-0.2,0.1-0.3
			c0-0.1,0.1-0.2,0.1-0.3c0-0.1,0-0.2,0-0.3c0-0.1,0-0.2-0.1-0.3c-0.1-0.1-0.1-0.2-0.2-0.2c-0.1-0.1-0.2-0.1-0.3-0.2
			c-0.1,0-0.2-0.1-0.3-0.1c0,0-0.1,0-0.1,0c-0.1,0-0.1,0-0.1,0c0,0.1-0.2,0.5-0.6,1.3c-0.4,0.8-0.5,1.2-0.6,1.4
			c0,0.1-0.1,0.3-0.1,0.5c0,0.1,0,0.1,0,0.2c0,0.1,0.1,0.1,0.2,0.1h1.8l0.2,0.2c0,0,0,0,0,0.1c0,0.1,0,0.1,0,0.1c0,0.1,0,0.2,0,0.3
			c0,0.1-0.4,1-1.2,2.7c-0.1,0.3-0.3,0.5-0.5,0.7c-0.2,0.1-0.4,0.2-0.6,0.2c-0.2,0-0.5,0-0.9,0c-0.4,0-0.8,0-1.1,0
			c-0.3,0-0.5,0-0.6,0c-0.1,0-0.1,0-0.1,0l-0.3-0.1c0,0,0,0,0-0.1c0,0,0-0.1,0-0.1C128.8,50.2,128.9,50,129,49.8z"/>
		<linearGradient id="SVGID_8_" gradientUnits="userSpaceOnUse" x1="140.0941" y1="46.6769" x2="146.0284" y2="46.6769">
			<stop  offset="0.1011" style="stop-color:#07607F"/>
			<stop  offset="0.235" style="stop-color:#0B6D94"/>
			<stop  offset="0.3991" style="stop-color:#0B7BAB"/>
			<stop  offset="0.5" style="stop-color:#0982B6"/>
			<stop  offset="0.6012" style="stop-color:#0B7BAB"/>
			<stop  offset="0.7657" style="stop-color:#0B6D94"/>
			<stop  offset="0.9" style="stop-color:#07607F"/>
		</linearGradient>
		<path class="st7" d="M142.4,43.1H142l0.2-0.4h3.8l-0.1,0.4h-0.2h-1.1l-3.1,7.3c0,0,0,0,0,0.1c0,0,0,0.1-0.1,0.1
			c0,0.1-0.1,0.1-0.1,0.1h-1.2l3.1-7.4l0.1-0.2H142.4z"/>
		<linearGradient id="SVGID_9_" gradientUnits="userSpaceOnUse" x1="144.2918" y1="46.6666" x2="151.4303" y2="46.6666">
			<stop  offset="0.1011" style="stop-color:#07607F"/>
			<stop  offset="0.235" style="stop-color:#0B6D94"/>
			<stop  offset="0.3991" style="stop-color:#0B7BAB"/>
			<stop  offset="0.5" style="stop-color:#0982B6"/>
			<stop  offset="0.6012" style="stop-color:#0B7BAB"/>
			<stop  offset="0.7657" style="stop-color:#0B6D94"/>
			<stop  offset="0.9" style="stop-color:#07607F"/>
		</linearGradient>
		<path class="st8" d="M147.7,42.8C147.7,42.7,147.7,42.7,147.7,42.8c0.1-0.1,0.1-0.1,0.2-0.1h3.1c0.1,0,0.2,0,0.3,0.1
			c0.1,0,0.2,0,0.2,0.1c0,0.1,0,0.2,0,0.2c0,0.1,0,0.3-0.1,0.6c-0.1,0.3-0.2,0.5-0.3,0.8c-0.1,0.3-0.2,0.5-0.4,0.8
			c-0.1,0.2-0.3,0.4-0.4,0.5c-0.1,0.1-0.2,0.1-0.4,0.2c-0.2,0.1-0.4,0.2-0.6,0.3c-0.2,0.1-0.4,0.2-0.6,0.3c-0.2,0.1-0.2,0.2-0.2,0.2
			c0,0,0,0,0,0c0,0,0,0,0,0c0.1,0,0.2,0.1,0.3,0.1s0.3,0.1,0.4,0.1c0.1,0,0.2,0.1,0.3,0.2c0.1,0.1,0.1,0.2,0.1,0.3
			c0,0.1,0,0.2-0.1,0.4c-0.1,0.2-0.5,1.2-1.3,3h-1.2l1.1-2.9c0,0,0-0.1,0.1-0.2c0-0.1,0-0.1,0-0.1c0-0.1-0.1-0.1-0.1-0.2
			c-0.1-0.1-0.1-0.1-0.2-0.1c-0.1,0-0.2-0.1-0.3-0.1c-0.1,0-0.2,0-0.2,0c-0.1,0-0.1,0-0.1,0c0,0-0.1,0-0.1,0c0,0,0,0.1-0.1,0.1
			c0,0,0,0.1-0.1,0.2l-1.5,3.3h-1.2c0,0,0,0-0.1,0c0,0,0,0,0-0.1L147.7,42.8z M149.1,43.1c-0.1,0-0.1,0-0.2,0.1c0,0-0.1,0.1-0.1,0.2
			c0,0.1-0.1,0.2-0.1,0.3c-0.1,0.2-0.2,0.4-0.3,0.7c-0.1,0.3-0.2,0.6-0.3,0.8c-0.1,0.3-0.2,0.5-0.3,0.7c-0.1,0.2-0.1,0.3-0.1,0.3
			v0.1c0,0,0,0,0.1,0c0.1,0,0.1,0,0.1,0c0,0,0.1,0,0.2-0.1c0.1,0,0.2-0.1,0.3-0.1c0.1,0,0.2-0.1,0.3-0.1c0.1,0,0.2-0.1,0.2-0.1
			c0.1-0.1,0.2-0.2,0.3-0.4c0.1-0.2,0.2-0.4,0.3-0.6c0.1-0.2,0.2-0.5,0.3-0.7c0.1-0.2,0.1-0.4,0.1-0.5c0-0.1,0-0.2-0.1-0.2
			c0-0.1-0.1-0.1-0.2-0.2c-0.1,0-0.1-0.1-0.2-0.1c-0.1,0-0.1,0-0.2,0C149.2,43.1,149.1,43.1,149.1,43.1z"/>
		<linearGradient id="SVGID_10_" gradientUnits="userSpaceOnUse" x1="149.9843" y1="46.6671" x2="156.8073" y2="46.6671">
			<stop  offset="0.1011" style="stop-color:#07607F"/>
			<stop  offset="0.235" style="stop-color:#0B6D94"/>
			<stop  offset="0.3991" style="stop-color:#0B7BAB"/>
			<stop  offset="0.5" style="stop-color:#0982B6"/>
			<stop  offset="0.6012" style="stop-color:#0B7BAB"/>
			<stop  offset="0.7657" style="stop-color:#0B6D94"/>
			<stop  offset="0.9" style="stop-color:#07607F"/>
		</linearGradient>
		<path class="st9" d="M156.3,42.6c0.2,0,0.3,0.1,0.5,0.3c0.1,0.2,0,0.8-0.4,1.7l-0.8,2l-1.7,4l-1.2,0l1.5-3.7h-0.7l-0.6,0l-1.6,3.6
			H151h-1c0-0.1,1.1-2.8,3.4-8.1h1.2C155.3,42.6,155.8,42.6,156.3,42.6z M155.4,43.4c0-0.1-0.1-0.2-0.1-0.2
			c-0.1-0.1-0.1-0.1-0.2-0.2c-0.1,0-0.1-0.1-0.2-0.1s-0.2,0-0.3,0l-1.5,3.5l1.4,0l0.8-1.9l0.2-0.7C155.4,43.6,155.4,43.5,155.4,43.4
			z"/>
		<linearGradient id="SVGID_11_" gradientUnits="userSpaceOnUse" x1="155.7679" y1="46.6617" x2="162.8066" y2="46.6617">
			<stop  offset="0.1011" style="stop-color:#07607F"/>
			<stop  offset="0.235" style="stop-color:#0B6D94"/>
			<stop  offset="0.3991" style="stop-color:#0B7BAB"/>
			<stop  offset="0.5" style="stop-color:#0982B6"/>
			<stop  offset="0.6012" style="stop-color:#0B7BAB"/>
			<stop  offset="0.7657" style="stop-color:#0B6D94"/>
			<stop  offset="0.9" style="stop-color:#07607F"/>
		</linearGradient>
		<path class="st10" d="M161.2,43.4c0-0.1-0.1-0.2-0.1-0.2c-0.1-0.1-0.1-0.1-0.2-0.2c-0.1,0-0.1-0.1-0.2-0.1s-0.2,0-0.3,0l-3.4,7.8
			h-0.2h-1c0-0.1,1.1-2.8,3.4-8.1h1.2c0.7,0,1.3,0,1.7,0c0.2,0,0.3,0,0.4,0c0.1,0,0.1,0,0.2,0.1c0,0,0.1,0.1,0.1,0.2
			c-0.1,0.2-1.1,2.8-3.1,7.8l-1.2,0l2.8-6.9C161.2,43.6,161.2,43.5,161.2,43.4z"/>
		<linearGradient id="SVGID_12_" gradientUnits="userSpaceOnUse" x1="161.4615" y1="46.6617" x2="168.3036" y2="46.6617">
			<stop  offset="0.1011" style="stop-color:#07607F"/>
			<stop  offset="0.235" style="stop-color:#0B6D94"/>
			<stop  offset="0.3991" style="stop-color:#0B7BAB"/>
			<stop  offset="0.5" style="stop-color:#0982B6"/>
			<stop  offset="0.6012" style="stop-color:#0B7BAB"/>
			<stop  offset="0.7657" style="stop-color:#0B6D94"/>
			<stop  offset="0.9" style="stop-color:#07607F"/>
		</linearGradient>
		<path class="st11" d="M161.6,49.8c0.1-0.2,0.3-0.6,0.5-1.1l1,0h0.1c0,0,0,0,0.1,0s0,0,0,0.1v0.1v0c0,0,0,0.1,0,0.1
			c0,0.1,0,0.1-0.1,0.2c0,0.1,0,0.2-0.1,0.2c0,0.1,0,0.1,0,0.1c0,0.1,0,0.2,0.1,0.3s0.2,0.2,0.3,0.3c0.1,0.1,0.2,0.1,0.2,0.1
			c0.1,0,0.1,0,0.3,0c0.2,0,0.3-0.1,0.4-0.2c0.1-0.1,0.2-0.2,0.3-0.4c0.1-0.2,0.2-0.4,0.3-0.7c0.1-0.2,0.2-0.5,0.3-0.7
			c0.1-0.2,0.2-0.4,0.2-0.6c0.1-0.2,0.1-0.3,0.1-0.4c0,0,0-0.1,0-0.1c0-0.1,0-0.1,0-0.1l-0.2-0.2h-2.1v-0.3c0.1-0.2,0.2-0.4,0.2-0.6
			c0-0.1,0.4-1,1.1-2.7c0.1-0.2,0.2-0.4,0.3-0.5c0.1-0.1,0.1-0.1,0.2-0.2c0.1-0.1,0.1-0.1,0.2-0.1h3.1c0.1,0.3,0.1,0.5,0,0.8
			c-0.1,0.3-0.2,0.5-0.3,0.7c-0.1,0.2-0.3,0.4-0.6,0.5c-0.2,0.1-0.5,0.2-0.8,0.2c0-0.1,0-0.2,0-0.3c0-0.1,0.1-0.2,0.1-0.3
			c0-0.1,0.1-0.2,0.1-0.3c0-0.1,0-0.2,0-0.3c0-0.1,0-0.2-0.1-0.3c-0.1-0.1-0.1-0.2-0.2-0.2c-0.1-0.1-0.2-0.1-0.3-0.2
			c-0.1,0-0.2-0.1-0.3-0.1c0,0-0.1,0-0.1,0c-0.1,0-0.1,0-0.1,0c0,0.1-0.2,0.5-0.6,1.3c-0.4,0.8-0.5,1.2-0.6,1.4
			c0,0.1-0.1,0.3-0.1,0.5c0,0.1,0,0.1,0,0.2c0,0.1,0.1,0.1,0.2,0.1h1.8l0.2,0.2c0,0,0,0,0,0.1c0,0.1,0,0.1,0,0.1c0,0.1,0,0.2,0,0.3
			c0,0.1-0.4,1-1.2,2.7c-0.1,0.3-0.3,0.5-0.5,0.7c-0.2,0.1-0.4,0.2-0.6,0.2c-0.2,0-0.5,0-0.9,0c-0.4,0-0.8,0-1.1,0
			c-0.3,0-0.5,0-0.6,0c-0.1,0-0.1,0-0.1,0l-0.3-0.1c0,0,0,0,0-0.1c0,0,0-0.1,0-0.1C161.5,50.2,161.5,50,161.6,49.8z"/>
		<linearGradient id="SVGID_13_" gradientUnits="userSpaceOnUse" x1="167.204" y1="46.6666" x2="174.3425" y2="46.6666">
			<stop  offset="0.1011" style="stop-color:#07607F"/>
			<stop  offset="0.235" style="stop-color:#0B6D94"/>
			<stop  offset="0.3991" style="stop-color:#0B7BAB"/>
			<stop  offset="0.5" style="stop-color:#0982B6"/>
			<stop  offset="0.6012" style="stop-color:#0B7BAB"/>
			<stop  offset="0.7657" style="stop-color:#0B6D94"/>
			<stop  offset="0.9" style="stop-color:#07607F"/>
		</linearGradient>
		<path class="st12" d="M170.6,42.8C170.6,42.7,170.6,42.7,170.6,42.8c0.1-0.1,0.1-0.1,0.2-0.1h3.1c0.1,0,0.2,0,0.3,0.1
			c0.1,0,0.2,0,0.2,0.1c0,0.1,0,0.2,0,0.2c0,0.1,0,0.3-0.1,0.6c-0.1,0.3-0.2,0.5-0.3,0.8c-0.1,0.3-0.2,0.5-0.4,0.8
			c-0.1,0.2-0.3,0.4-0.4,0.5c-0.1,0.1-0.2,0.1-0.4,0.3c-0.2,0.1-0.4,0.2-0.6,0.3c-0.2,0.1-0.7,0.3-1.5,0.6c-0.3,0.1-0.4,0.2-0.5,0.2
			c0,0-0.1,0.1-0.1,0.2c0,0.1-0.1,0.1-0.1,0.2c0,0,0,0.1-0.1,0.2l-1.5,3.3h-1.2c0,0,0,0-0.1,0c0,0,0,0,0-0.1L170.6,42.8z M172,43.1
			c-0.1,0-0.1,0-0.2,0.1c0,0-0.1,0.1-0.1,0.2c0,0.1-0.1,0.2-0.1,0.3c-0.1,0.2-0.2,0.4-0.3,0.7c-0.1,0.3-0.2,0.6-0.3,0.8
			c-0.1,0.3-0.2,0.5-0.3,0.7c-0.1,0.2-0.1,0.3-0.1,0.3c0.1,0,0.2,0,0.3,0c0.2,0,0.3-0.1,0.5-0.1c0.1,0,0.2-0.1,0.3-0.1
			c0.1,0,0.2-0.1,0.2-0.1c0.1-0.1,0.2-0.2,0.3-0.4c0.1-0.2,0.2-0.4,0.3-0.6c0.1-0.2,0.2-0.5,0.3-0.7c0.1-0.2,0.1-0.4,0.1-0.5
			c0-0.1,0-0.2-0.1-0.2c0-0.1-0.1-0.1-0.2-0.2c-0.1,0-0.1-0.1-0.2-0.1c-0.1,0-0.1,0-0.2,0C172.1,43.1,172,43.1,172,43.1z"/>
		<linearGradient id="SVGID_14_" gradientUnits="userSpaceOnUse" x1="172.876" y1="46.6617" x2="179.8295" y2="46.6617">
			<stop  offset="0.1011" style="stop-color:#07607F"/>
			<stop  offset="0.235" style="stop-color:#0B6D94"/>
			<stop  offset="0.3991" style="stop-color:#0B7BAB"/>
			<stop  offset="0.5" style="stop-color:#0982B6"/>
			<stop  offset="0.6012" style="stop-color:#0B7BAB"/>
			<stop  offset="0.7657" style="stop-color:#0B6D94"/>
			<stop  offset="0.9" style="stop-color:#07607F"/>
		</linearGradient>
		<path class="st13" d="M172.9,50.3c0-0.1,0-0.3,0.1-0.4c0-0.1,0.1-0.3,0.2-0.4c0.1-0.1,0.5-1.2,1.5-3.3c0.9-2,1.4-3.1,1.6-3.2
			c0.2-0.1,0.4-0.2,0.5-0.3c0,0,0.1,0,0.2,0c0.1,0,0.2,0,0.3,0c0.1,0,0.2,0,0.3,0c0.1,0,0.2,0,0.2,0c0.4,0,0.7,0,1,0
			c0.3,0,0.6,0,0.8,0.1c0.2,0.1,0.3,0.2,0.3,0.3c0,0,0,0.1,0,0.1c0,0,0,0.1,0,0.1c0,0.1,0,0.1-0.1,0.2c0,0.1-0.1,0.3-0.3,0.6
			c-0.1,0.3-0.6,1.4-1.4,3.1s-1.2,2.7-1.2,2.8c-0.1,0.1-0.1,0.2-0.2,0.3c-0.1,0.1-0.2,0.2-0.3,0.2c-0.1,0.1-0.2,0.1-0.4,0.2
			c0,0-0.1,0-0.2,0c-0.1,0-0.2,0-0.3,0c-0.1,0-0.2,0-0.3,0c-0.1,0-0.1,0-0.2,0c-0.2,0-0.4,0-0.6,0c-0.2,0-0.3,0-0.5,0
			c-0.2,0-0.3,0-0.5,0c-0.2,0-0.3-0.1-0.4-0.1C172.9,50.4,172.9,50.3,172.9,50.3z M174.7,49.9c0,0.1,0.1,0.1,0.2,0.2
			c0.1,0.1,0.1,0.1,0.2,0.1c0.1,0,0.1,0,0.2,0.1h0.1c0.1,0,0.1-0.1,0.2-0.1c0,0,0.1-0.1,0.1-0.1l2.6-6.1c0,0,0,0,0-0.1
			c0-0.1,0-0.1,0-0.1c0-0.1,0-0.2-0.1-0.3c0-0.1-0.1-0.2-0.2-0.2c-0.1-0.1-0.2-0.1-0.2-0.1c-0.1,0-0.2,0-0.3,0
			c-0.1,0.1-0.2,0.1-0.2,0.2c0,0.1-0.1,0.3-0.3,0.5c-0.1,0.3-0.5,1.2-1.2,2.7c-0.7,1.5-1,2.4-1,2.6c0,0.2,0,0.4,0,0.6
			C174.6,49.7,174.6,49.8,174.7,49.9z"/>
		<linearGradient id="SVGID_15_" gradientUnits="userSpaceOnUse" x1="178.5705" y1="46.6666" x2="185.709" y2="46.6666">
			<stop  offset="0.1011" style="stop-color:#07607F"/>
			<stop  offset="0.235" style="stop-color:#0B6D94"/>
			<stop  offset="0.3991" style="stop-color:#0B7BAB"/>
			<stop  offset="0.5" style="stop-color:#0982B6"/>
			<stop  offset="0.6012" style="stop-color:#0B7BAB"/>
			<stop  offset="0.7657" style="stop-color:#0B6D94"/>
			<stop  offset="0.9" style="stop-color:#07607F"/>
		</linearGradient>
		<path class="st14" d="M182,42.8C182,42.7,182,42.7,182,42.8c0.1-0.1,0.1-0.1,0.2-0.1h3.1c0.1,0,0.2,0,0.3,0.1c0.1,0,0.2,0,0.2,0.1
			c0,0.1,0,0.2,0,0.2c0,0.1,0,0.3-0.1,0.6c-0.1,0.3-0.2,0.5-0.3,0.8c-0.1,0.3-0.2,0.5-0.4,0.8c-0.1,0.2-0.3,0.4-0.4,0.5
			c-0.1,0.1-0.2,0.1-0.4,0.2c-0.2,0.1-0.4,0.2-0.6,0.3c-0.2,0.1-0.4,0.2-0.6,0.3c-0.2,0.1-0.2,0.2-0.2,0.2c0,0,0,0,0,0c0,0,0,0,0,0
			c0.1,0,0.2,0.1,0.3,0.1s0.3,0.1,0.4,0.1c0.1,0,0.2,0.1,0.3,0.2c0.1,0.1,0.1,0.2,0.1,0.3c0,0.1,0,0.2-0.1,0.4
			c-0.1,0.2-0.5,1.2-1.3,3h-1.2l1.1-2.9c0,0,0-0.1,0.1-0.2c0-0.1,0-0.1,0-0.1c0-0.1-0.1-0.1-0.1-0.2c-0.1-0.1-0.1-0.1-0.2-0.1
			c-0.1,0-0.2-0.1-0.3-0.1c-0.1,0-0.2,0-0.2,0c-0.1,0-0.1,0-0.1,0c0,0-0.1,0-0.1,0c0,0,0,0.1-0.1,0.1c0,0,0,0.1-0.1,0.2l-1.5,3.3
			h-1.2c0,0,0,0-0.1,0c0,0,0,0,0-0.1L182,42.8z M183.3,43.1c-0.1,0-0.1,0-0.2,0.1c0,0-0.1,0.1-0.1,0.2c0,0.1-0.1,0.2-0.1,0.3
			c-0.1,0.2-0.2,0.4-0.3,0.7c-0.1,0.3-0.2,0.6-0.3,0.8c-0.1,0.3-0.2,0.5-0.3,0.7c-0.1,0.2-0.1,0.3-0.1,0.3v0.1c0,0,0,0,0.1,0
			c0.1,0,0.1,0,0.1,0c0,0,0.1,0,0.2-0.1c0.1,0,0.2-0.1,0.3-0.1c0.1,0,0.2-0.1,0.3-0.1c0.1,0,0.2-0.1,0.2-0.1
			c0.1-0.1,0.2-0.2,0.3-0.4c0.1-0.2,0.2-0.4,0.3-0.6c0.1-0.2,0.2-0.5,0.3-0.7c0.1-0.2,0.1-0.4,0.1-0.5c0-0.1,0-0.2-0.1-0.2
			c0-0.1-0.1-0.1-0.2-0.2c-0.1,0-0.1-0.1-0.2-0.1c-0.1,0-0.1,0-0.2,0C183.5,43.1,183.4,43.1,183.3,43.1z"/>
		<linearGradient id="SVGID_16_" gradientUnits="userSpaceOnUse" x1="184.8553" y1="46.6769" x2="190.7897" y2="46.6769">
			<stop  offset="0.1011" style="stop-color:#07607F"/>
			<stop  offset="0.235" style="stop-color:#0B6D94"/>
			<stop  offset="0.3991" style="stop-color:#0B7BAB"/>
			<stop  offset="0.5" style="stop-color:#0982B6"/>
			<stop  offset="0.6012" style="stop-color:#0B7BAB"/>
			<stop  offset="0.7657" style="stop-color:#0B6D94"/>
			<stop  offset="0.9" style="stop-color:#07607F"/>
		</linearGradient>
		<path class="st15" d="M187.2,43.1h-0.4l0.2-0.4h3.8l-0.1,0.4h-0.2h-1.1l-3.1,7.3c0,0,0,0,0,0.1c0,0,0,0.1-0.1,0.1
			c0,0.1-0.1,0.1-0.1,0.1h-1.2l3.1-7.4l0.1-0.2H187.2z"/>
	</g>
	<g>
		<linearGradient id="SVGID_17_" gradientUnits="userSpaceOnUse" x1="29.2045" y1="37.1295" x2="79.9716" y2="37.1295">
			<stop  offset="0.1011" style="stop-color:#07607F"/>
			<stop  offset="0.235" style="stop-color:#0B6D94"/>
			<stop  offset="0.3991" style="stop-color:#0B7BAB"/>
			<stop  offset="0.5" style="stop-color:#0982B6"/>
			<stop  offset="0.6012" style="stop-color:#0B7BAB"/>
			<stop  offset="0.7657" style="stop-color:#0B6D94"/>
			<stop  offset="0.9" style="stop-color:#07607F"/>
		</linearGradient>
		<path class="st16" d="M53.5,9.4c0.1-0.1,0.2-0.2,0.4-0.4c0.2-0.2,0.5-0.3,0.9-0.4h22c0.6,0.1,1.2,0.2,1.9,0.4
			c0.7,0.2,1.1,0.3,1.2,0.4c0,0.8,0.1,1.3,0.1,1.5c0,0.9-0.2,2.2-0.7,4c-0.5,1.8-1.1,3.7-1.9,5.6c-0.8,2-1.6,3.8-2.6,5.5
			c-0.9,1.7-1.8,2.8-2.7,3.5c-0.5,0.4-2.7,1.5-6.8,3.3c-4.1,1.8-6.1,3-6.1,3.5c0,0,0,0.1,0,0.2c0,0.1,0,0.1,0,0.2
			c0.6,0.3,1.3,0.6,2.2,0.9c0.9,0.3,1.8,0.6,2.6,1c0.9,0.4,1.6,0.8,2.2,1.3c0.6,0.5,0.9,1.2,0.9,1.9c0,0.5-0.2,1.4-0.6,2.7
			c-0.4,1.3-3.1,7.6-8,19c-0.7,1.6-1.9,2.4-3.6,2.4H38.5h-8.6c-0.1,0-0.2-0.1-0.4-0.3c-0.2-0.2-0.3-0.3-0.3-0.4L53.5,9.4z M48.3,62
			c1-0.3,2-0.8,2.8-1.4l2-5.1l3.9-10.4c0.1-0.3,0.2-0.7,0.4-1.3c0.2-0.5,0.3-0.8,0.3-0.9c-0.1-0.5-0.4-0.9-0.8-1.3
			c-0.5-0.4-1-0.7-1.6-0.9c-0.6-0.2-1.2-0.4-1.9-0.6c-0.6-0.1-1.1-0.2-1.5-0.2c-0.5,0-0.8,0-1.1,0.1c-0.2,0-0.5,0.1-0.6,0.3
			c-0.2,0.1-0.4,0.4-0.5,0.7c-0.1,0.3-0.3,0.7-0.6,1.2L43.8,54l-2.7,5.9c0.1,0.9,0.4,1.5,0.8,1.9c0.4,0.4,1.1,0.7,2.3,0.9
			C45.9,62.5,47.3,62.3,48.3,62z M63.2,11.6c-0.4,0.1-0.8,0.3-1.1,0.5c-0.3,0.2-0.5,0.6-0.7,1.1c-0.2,0.5-0.5,1.1-0.8,1.9
			c-0.5,1.3-1.2,2.9-2,4.9c-0.8,2-1.6,4-2.4,5.9c-0.8,1.9-1.4,3.5-2,4.9c-0.5,1.4-0.8,2.1-0.8,2.1v0.9c0.1,0,0.3,0,0.7-0.1
			c0.4,0,0.6-0.1,0.7-0.1c0.3-0.1,2.9-1,7.9-2.9c0.7-0.5,1.5-1.4,2.3-2.8c0.8-1.4,1.6-2.9,2.3-4.6c0.7-1.7,1.3-3.3,1.8-4.8
			c0.5-1.5,0.7-2.7,0.7-3.5c0-0.6-0.2-1.1-0.5-1.5c-0.4-0.5-0.8-0.8-1.3-1.1c-0.5-0.3-1-0.5-1.6-0.7c-0.5-0.2-1-0.3-1.5-0.3
			C64.2,11.4,63.6,11.5,63.2,11.6z"/>
		<linearGradient id="SVGID_18_" gradientUnits="userSpaceOnUse" x1="73.9027" y1="37.2007" x2="189.3536" y2="37.2007">
			<stop  offset="0.1011" style="stop-color:#07607F"/>
			<stop  offset="0.235" style="stop-color:#0B6D94"/>
			<stop  offset="0.3991" style="stop-color:#0B7BAB"/>
			<stop  offset="0.5" style="stop-color:#0982B6"/>
			<stop  offset="0.6012" style="stop-color:#0B7BAB"/>
			<stop  offset="0.7657" style="stop-color:#0B6D94"/>
			<stop  offset="0.9" style="stop-color:#07607F"/>
		</linearGradient>
		<path class="st17" d="M90.3,11.5h-2.6l1.1-2.9h94.4l6.1,2.9h-1.1H106L83.9,63.6c0,0-0.1,0.2-0.2,0.5c-0.1,0.3-0.3,0.7-0.6,1
			c-0.2,0.4-0.5,0.6-0.6,0.6h-8.6L96,12.9l0.6-1.4H90.3z"/>
	</g>
</g>
</svg>
